<?xml version="1.0" encoding="UTF-8" standalone="no"?>
<svg
   xmlns:dc="http://purl.org/dc/elements/1.1/"
   xmlns:cc="http://creativecommons.org/ns#"
   xmlns:rdf="http://www.w3.org/1999/02/22-rdf-syntax-ns#"
   xmlns:svg="http://www.w3.org/2000/svg"
   xmlns="http://www.w3.org/2000/svg"
   xmlns:sodipodi="http://sodipodi.sourceforge.net/DTD/sodipodi-0.dtd"
   xmlns:inkscape="http://www.inkscape.org/namespaces/inkscape"
   inkscape:version="1.0 (4035a4fb49, 2020-05-01)"
   sodipodi:docname="Maserati 2020 Logo.svg"
   id="svg32"
   viewBox="0 0 264.58002 107.34843"
   version="1.1"
   height="405.71408"
   width="1000.0001">
  <metadata
     id="metadata38">
    <rdf:RDF>
      <cc:Work
         rdf:about="">
        <dc:format>image/svg+xml</dc:format>
        <dc:type
           rdf:resource="http://purl.org/dc/dcmitype/StillImage" />
        <dc:title></dc:title>
      </cc:Work>
    </rdf:RDF>
  </metadata>
  <defs
     id="defs36" />
  <sodipodi:namedview
     inkscape:current-layer="svg32"
     inkscape:window-maximized="1"
     inkscape:window-y="-11"
     inkscape:window-x="-11"
     inkscape:cy="563.42541"
     inkscape:cx="1252.0446"
     inkscape:zoom="0.40847613"
     fit-margin-bottom="0"
     fit-margin-right="0"
     fit-margin-left="0"
     fit-margin-top="0"
     showgrid="false"
     id="namedview34"
     inkscape:window-height="986"
     inkscape:window-width="1920"
     inkscape:pageshadow="2"
     inkscape:pageopacity="0"
     guidetolerance="10"
     gridtolerance="10"
     objecttolerance="10"
     borderopacity="1"
     bordercolor="#666666"
     pagecolor="#ffffff" />
  <g
     id="g80">
    <path
       class="st0"
       d="m 250.84848,91.416411 c -1.88903,0.0013 -3.77807,0.0022 -5.66732,0.0031 0.13344,-0.267736 0.26658,-0.535768 0.3997,-0.803805 0.92408,-1.860732 1.89544,-2.458385 3.99822,-2.459257 0.96321,-4.36e-4 1.92641,-0.0013 2.88931,-0.0017 -0.53982,1.08728 -1.08,2.17456 -1.62013,3.261884 z"
       id="path2"
       style="stroke-width:0.436116" />
    <path
       class="st0"
       d="m 244.72978,104.0158 c 1.73604,-3.49224 3.47209,-6.984834 5.20809,-10.476813 -1.88903,8.72e-4 -3.77807,0.0013 -5.66732,0.0022 -1.49837,3.014564 -2.99647,6.029301 -4.49505,9.043293 -0.50624,1.01838 -1.19853,1.43417 -2.38887,1.43504 -4.59055,0.002 -9.18111,0.004 -13.77166,0.006 1.85663,-3.73515 3.71322,-7.470225 5.57007,-11.20512 0.7851,-1.578085 1.08174,-1.690778 2.91587,-1.690778 0.5489,-3.01e-4 1.09784,-4.36e-4 1.64673,-4.36e-4 1.607,-8.72e-4 2.36405,-0.43298 2.99995,-1.71267 0.25634,-0.516492 0.51296,-1.033289 0.76962,-1.549781 -1.95738,8.72e-4 -3.91501,0.0022 -5.8723,0.0031 0.84201,-1.695749 1.68406,-3.391237 2.52611,-5.086855 -1.23442,4.36e-4 -2.46889,0.0013 -3.70332,0.0017 -1.6131,4.36e-4 -2.3699,0.428893 -3,1.697493 -0.56115,1.129932 -1.1223,2.259865 -1.68349,3.389448 -1.02775,4.37e-4 -2.05546,8.73e-4 -3.08316,0.0013 -0.54013,1.08728 -1.08026,2.174299 -1.62044,3.261274 1.02802,-2.88e-4 2.05603,-4.36e-4 3.08404,-0.0013 -0.63298,1.273546 -5.06461,10.188975 -5.69785,11.462425 -0.50568,1.01724 -1.19592,1.43212 -2.38276,1.43299 -4.07878,0.002 -8.15799,0.003 -12.23654,0.005 2.16845,-3.96434 4.33717,-7.928583 6.50554,-11.892875 -1.4981,-0.0013 -2.99411,0 -4.49243,0 -1.04903,-2.88e-4 -1.49867,0.341313 -2.15415,1.125571 -0.004,-0.856924 -0.3121,-1.125833 -1.13486,-1.126444 -1.03852,-0.0013 -2.07591,-0.0035 -3.11587,-0.0026 -5.11259,0.0035 -7.96958,1.581268 -10.18985,5.639849 -0.88261,1.612844 -1.76496,3.225689 -2.64757,4.838269 -0.553,1.0114 -1.24263,1.42392 -2.37954,1.42392 -2.62773,8.7e-4 -5.25563,0.001 -7.88323,0.002 -2.85603,8.7e-4 -3.9734,-0.41021 -4.28959,-1.90713 -0.34073,-1.61254 0.38276,-2.921458 4.20521,-5.455815 0.72116,-0.478549 1.44262,-0.95675 2.16409,-1.434995 1.00699,-0.668042 1.41341,-1.015757 1.27882,-1.73984 -0.12029,-0.647283 -0.51213,-1.361161 -3.63559,-1.360856 -4.9425,8.72e-4 -9.885,0.0013 -14.8275,0.0022 -1.56875,0 -2.29955,0.41605 -3.00846,1.712714 -1.5988,2.923458 -3.1979,5.847004 -4.79684,8.770292 -0.55064,1.00612 -1.23996,1.41663 -2.37984,1.41663 -7.93294,2.9e-4 -15.86545,4.4e-4 -23.79753,8.8e-4 0.3387,-0.99531 0.67738,-1.99065 1.01576,-2.98626 3.96141,0 7.92292,0 11.88416,-3e-4 2.34421,0 3.31674,-0.60642 4.16172,-2.596466 0.37838,-0.890766 0.75679,-1.781577 1.13486,-2.672387 0.28496,-0.670964 0.52321,-1.623353 0.0417,-2.350925 -0.55997,-0.846109 -1.99675,-1.293127 -4.15496,-1.292866 -3.80345,0 -7.60717,3.06e-4 -11.41097,3.06e-4 -3.64784,0 -5.31232,1.016934 -6.59276,4.031759 -0.78976,1.859554 -1.57987,3.71937 -2.36963,5.579229 -0.80878,1.90452 -2.09227,2.28726 -3.90215,2.28726 -2.72088,-2.9e-4 -5.44185,-2.9e-4 -8.16234,-4.4e-4 0.17108,-0.25723 0.34218,-0.51444 0.51326,-0.77166 1.61489,-2.42655 1.30482,-5.126547 -0.85021,-7.407433 -2.11621,-2.239672 -4.92505,-3.031528 -7.4144,-3.720852 -2.115905,-3.06e-4 -4.231808,-4.36e-4 -6.347231,-8.73e-4 -1.455449,2.661005 -2.910942,5.321921 -4.365955,7.982228 -1.821001,3.32844 -3.799659,3.9144 -7.290548,3.91414 -2.560872,0 -5.121307,-8.7e-4 -7.682179,-0.001 2.169589,-3.96582 4.338916,-7.931637 6.508156,-11.897238 -1.50364,-0.0013 -3.005231,0 -4.509001,0 -1.049033,-2.88e-4 -1.498669,0.341313 -2.154151,1.125571 -0.0044,-0.856924 -0.312119,-1.125833 -1.13486,-1.126443 -1.032984,-0.0013 -2.064791,-0.0035 -3.099257,-0.0026 -5.112149,0.0035 -7.969144,1.581269 -10.189846,5.639849 -0.882611,1.612844 -1.76496,3.225681 -2.647571,4.838261 -0.557095,1.01899 -1.223916,1.41664 -2.380102,1.41603 -3.902452,-0.001 -7.804728,-0.003 -11.707093,-0.004 3.308288,-6.048919 6.616749,-12.097845 9.924687,-18.147207 0.580994,-1.062204 -0.187734,-2.358819 -1.398536,-2.358819 H 6.2033113 c -3.1549924,0 -4.7152839,0.799705 -6.20898048,3.340123 6.69917468,0.0031 13.39791318,0.0064 20.09752418,0.0096 -3.734547,6.825649 -7.468919,13.651303 -11.2033788,20.476953 h 5.7855118 c 3.73398,-6.82478 7.468047,-13.64956 11.20207,-20.474336 2.682636,0.0013 5.365097,0.0026 8.047645,0.0039 -3.733107,6.823468 -7.466302,13.646936 -11.199453,20.470406 h 5.785512 c 3.73254,-6.8226 7.464994,-13.64563 11.197709,-20.468225 2.682592,8.72e-4 5.365096,0.0022 8.048081,0.0031 -3.081158,5.632436 -6.162753,11.265307 -9.243911,16.898185 -0.422182,0.77196 -0.83237,1.85048 -0.386272,2.6023 0.374013,0.63097 1.314453,0.96469 2.718833,0.96469 h 15.2453 c 0.748287,0 1.068614,-0.24409 1.534604,-0.80115 0.0031,0.61083 0.51562,0.80115 1.100713,0.80115 h 26.217537 c 5.20068,0 7.965218,-1.51969 10.201184,-5.60714 1.151259,-2.104788 2.302779,-4.209613 3.454299,-6.314526 0.03943,0.0076 0.315612,0.06014 0.355015,0.06774 4.131066,0.786273 6.226426,2.317956 6.404356,4.682136 0.073,0.96761 -0.23034,1.84817 -0.87646,2.54744 -0.77079,0.83355 -1.95502,1.31472 -3.24932,1.31938 -2.640857,0.01 -3.699223,1.03447 -4.725752,3.30506 h 22.196982 c 0.74833,0 1.06862,-0.24408 1.53461,-0.80114 0.003,0.61082 0.51531,0.80114 1.1004,0.80114 h 32.83167 c 2.21517,0 3.17545,-0.58452 4.28144,-2.60579 1.28144,-2.34273 2.56288,-4.68563 3.84462,-7.02844 0.87738,-1.60351 1.96523,-2.22829 3.88056,-2.22829 1.92872,-4.36e-4 3.85775,-8.72e-4 5.78638,-0.0013 -0.97341,0.679686 -2.06771,1.548603 -2.90012,2.397633 -1.09779,1.126444 -2.15764,2.683207 -2.35006,4.697407 -0.1343,1.40612 0.20993,2.6067 0.99592,3.47122 0.77136,0.84877 1.90452,1.29722 3.27645,1.29722 h 13.4956 c 0.74829,0 1.06862,-0.24408 1.53456,-0.80114 0.003,0.61082 0.51562,0.80114 1.10041,0.80114 h 28.39855 c 0.74803,0 1.06862,-0.24408 1.53461,-0.80114 0.003,0.61082 0.51531,0.80114 1.1004,0.80114 h 41.99883 c 2.52986,0 3.8137,-0.82308 4.2919,-2.75123 0.0488,-0.1965 0.0975,-0.39328 0.14629,-0.58976 -6.61849,0.003 -13.23655,0.006 -19.85504,0.009 z M 129.68243,96.971654 c 0.57201,-1.639403 1.89606,-1.776605 3.0911,-1.776605 h 6.47327 c -0.14921,0.438515 -0.29811,0.876768 -0.44732,1.31502 -0.52465,1.54276 -1.71355,1.672112 -2.78683,1.672112 h -6.75238 c 0.14073,-0.40349 0.28147,-0.806989 0.42218,-1.210483 z m -58.858185,4.820826 c -0.894561,1.635 -1.945382,2.24408 -3.880558,2.2429 -1.06687,-8.7e-4 -2.13374,-0.001 -3.200567,-0.002 1.153875,-2.10888 2.307707,-4.218071 3.461582,-6.326734 0.876506,-1.602595 1.963786,-2.227418 3.876764,-2.227418 H 74.2785 c -1.15152,2.104782 -2.30304,4.209302 -3.454298,6.313652 z m 128.370685,0 c -0.89461,1.635 -1.94569,2.24408 -3.88056,2.2429 -1.06687,-8.7e-4 -2.1337,-0.001 -3.20057,-0.002 1.15388,-2.10888 2.30771,-4.218071 3.46158,-6.326734 0.87682,-1.602595 1.9641,-2.227418 3.87677,-2.227418 h 3.19708 c -1.15152,2.104782 -2.30304,4.209302 -3.45426,6.313652 z"
       id="path4"
       style="stroke-width:0.436116" />
    <path
       class="st0"
       d="m 127.07446,70.823024 v -2.907497 h 7.44624 2.9e-4 7.44624 v 2.907497 h -7.44624 -2.9e-4 z"
       id="path6"
       style="stroke-width:0.436116" />
    <path
       class="st0"
       d="m 134.52332,76.845783 h 4.69435 v -4.51816 h -4.69435 -2.9e-4 -4.69436 v 4.51816 h 4.69436"
       id="path8"
       style="stroke-width:0.436116" />
    <path
       class="st0"
       d="m 129.82635,66.413893 c -0.0137,-2.494626 -0.66311,-4.929417 -2.65786,-6.587093 h 7.35204 2.9e-4 7.35247 c -1.99475,1.657676 -2.6443,4.092554 -2.65786,6.587093 h -4.69435 -2.9e-4 -4.69435 z"
       id="path10"
       style="stroke-width:0.436116" />
    <path
       class="st0"
       d="m 117.39269,55.02691 v -2.146519 h 17.13019 2.9e-4 17.1302 v 2.146519 h -17.1302 -2.9e-4 z"
       id="path12"
       style="stroke-width:0.436116" />
    <path
       class="st0"
       d="m 118.92346,62.767965 c 2.00011,-0.428527 4.15853,-1.550566 5.58969,-2.940293 h -5.95734 c 0.12259,0.980083 0.24517,1.960166 0.36776,2.940293 z"
       id="path14"
       style="stroke-width:0.436116" />
    <path
       class="st0"
       d="m 150.11882,62.767965 c -2.00012,-0.428527 -4.15854,-1.550566 -5.5897,-2.940293 h 5.95734 c -0.12259,0.980083 -0.24516,1.960166 -0.36776,2.940293 z"
       id="path16"
       style="stroke-width:0.436116" />
    <path
       class="st0"
       d="M 116.81266,48.175531 C 114.935,37.054578 111.31062,25.475268 107.3206,17.858505 c 4.28248,2.324803 8.88585,6.012729 13.81004,11.064258 -2.04273,-0.550989 -4.0854,-0.983528 -6.1283,-1.297793 2.84792,6.734064 5.20068,13.607685 7.33939,20.550648 -1.84311,-4e-6 -3.68635,-4e-6 -5.52951,-4e-6 z"
       id="path18"
       style="stroke-width:0.436116" />
    <path
       class="st0"
       d="m 152.22962,48.175531 c 1.87765,-11.120953 5.50204,-22.700263 9.49206,-30.317026 -4.28248,2.324803 -8.88586,6.012729 -13.81004,11.064258 2.04272,-0.550989 4.0854,-0.983528 6.1283,-1.297793 -2.84793,6.734064 -5.20069,13.607685 -7.3394,20.550648 1.84312,-4e-6 3.68636,-4e-6 5.52951,-4e-6 z"
       id="path20"
       style="stroke-width:0.436116" />
    <path
       class="st0"
       d="m 115.57409,51.764764 v -2.174212 h 18.94617 3e-4 18.94618 v 2.174212 h -18.94618 -3e-4 z"
       id="path22"
       style="stroke-width:0.436116" />
    <path
       class="st0"
       d="M 128.13858,16.681429 C 131.06383,11.647781 133.57433,5.9263775 134.52332,0 c 0.94912,5.9263775 3.45983,11.647781 6.38473,16.681429 -1.04144,-0.47022 -2.14516,-0.965953 -3.36777,-1.508699 -1.05889,-0.470089 -1.509,-0.192741 -1.47311,0.898617 0.35212,10.690506 1.92383,22.845489 7.50337,32.102483 h -6.57314 c -1.02967,-2.462615 -1.85445,-4.893219 -2.47452,-7.29142 -0.61994,2.398375 -1.44481,4.82911 -2.47452,7.29142 h -6.5727 c 5.57966,-9.256994 7.15143,-21.411977 7.50337,-32.102483 0.036,-1.091337 -0.41423,-1.368706 -1.47311,-0.898617 -1.22243,0.54279 -2.32615,1.038479 -3.36777,1.508699 z"
       id="path24"
       style="stroke-width:0.436116" />
    <path
       class="st0"
       d="m 115.57409,58.319584 v -2.174212 h 18.94617 3e-4 18.94618 v 2.174212 h -18.94618 -3e-4 z"
       id="path26"
       style="stroke-width:0.436116" />
  </g>
</svg>
